<mxfile host="app.diagrams.net" modified="2023-07-12T07:03:32.056Z" agent="Mozilla/5.0 (Windows NT 10.0; Win64; x64) AppleWebKit/537.36 (KHTML, like Gecko) Chrome/114.0.0.0 Safari/537.36" version="21.6.2" etag="OjOgwnQe0FV6J92vGpdq" type="github">
  <diagram name="第 1 页" id="E1Fyz2u8qjQ_4Gy9Ib2Q">
    <mxGraphModel>
      <root>
        <mxCell id="0" />
        <mxCell id="1" parent="0" />
      </root>
    </mxGraphModel>
  </diagram>
</mxfile>
